<svg xmlns="http://www.w3.org/2000/svg" viewBox="0 0 32 32" width="32" height="32" role="img" aria-label="Lumea Unghiilor">
  <defs>
    <linearGradient id="bg" x1="0" y1="0" x2="0" y2="1">
      <stop offset="0" stop-color="#8A3543"/>
      <stop offset="1" stop-color="#6A2531"/>
    </linearGradient>
    <linearGradient id="nail" x1="0" y1="0" x2="0" y2="1">
      <stop offset="0" stop-color="#FBF3F2"/>
      <stop offset="1" stop-color="#EBC7C9"/>
    </linearGradient>
  </defs>
  <rect width="32" height="32" rx="7" fill="url(#bg)"/>
  <path d="M16 6.2c-2.9 0-4.1 3.2-3.9 7 0.2 4 1.5 8.8 3.9 8.8s3.7-4.8 3.9-8.8c0.2-3.8-1-7-3.9-7Z" fill="url(#nail)"/>
  <path d="M12.6 9.3c1.8-2.5 5-2.5 6.8 0-1.8-1.3-5-1.3-6.8 0Z" fill="#ffffff" opacity="0.9"/>
  <path d="M13 20.6c1.6 1.4 4.4 1.4 6 0" stroke="#C9A96A" stroke-width="1.5" fill="none" stroke-linecap="round"/>
  <circle cx="23.5" cy="8.5" r="1.1" fill="#C9A96A"/>
</svg>
