<svg xmlns="http://www.w3.org/2000/svg" viewBox="0 0 600 600" width="600" height="600" role="img" aria-label="Lucrare manichiura - Lumea Unghiilor">
  <defs>
    <radialGradient id="gbg" cx="0.5" cy="0.4" r="0.75">
      <stop offset="0" stop-color="#F7E2E2"/>
      <stop offset="1" stop-color="#EBC7C9"/>
    </radialGradient>
    <linearGradient id="gnail" x1="0" y1="0" x2="0" y2="1">
      <stop offset="0" stop-color="#F0D5D5"/>
      <stop offset="1" stop-color="#7B2D3A"/>
    </linearGradient>
  </defs>
  <rect width="600" height="600" fill="url(#gbg)"/>
  <circle cx="500" cy="110" r="70" fill="#ffffff" opacity="0.18"/>
  <circle cx="110" cy="500" r="90" fill="#7B2D3A" opacity="0.06"/>
  <g transform="translate(300,352) scale(1.45)">
    <path d="M0,4 C-24,4 -30,-30 -27,-75 C-24,-120 -12,-150 0,-150 C12,-150 24,-120 27,-75 C30,-30 24,4 0,4 Z" fill="url(#gnail)"/>
    <path d="M-22,-128 C-11,-150 11,-150 22,-128 C11,-139 -11,-139 -22,-128 Z" fill="#FBF3F2" opacity="0.92"/>
    <ellipse cx="-9" cy="-82" rx="4.5" ry="36" fill="#ffffff" opacity="0.22"/>
    <path d="M-19,-2 C-7,8 7,8 19,-2" stroke="#C9A96A" stroke-width="2.5" fill="none" opacity="0.85"/>
  </g>
  <g fill="#C9A96A">
    <path d="M170,150 L176,168 L194,174 L176,180 L170,198 L164,180 L146,174 L164,168 Z" opacity="0.85"/>
    <path d="M430,360 L435,375 L450,380 L435,385 L430,400 L425,385 L410,380 L425,375 Z" opacity="0.7"/>
    <path d="M150,340 L153,350 L163,353 L153,356 L150,366 L147,356 L137,353 L147,350 Z" opacity="0.6"/>
  </g>
</svg>
